# xmcd CD database file
#
# Track frame offsets:
#	150
#	10911
#	21771
#	33688
#	44942
#	56850
#	71100
#	80800
#	90507
#	102620
#	115687
#
# Disc length: 1760 seconds
#
# Revision: 1
# Processed by: cddbd v1.5.1PL0 Copyright (c) Steve Scherf et al.
# Submitted via: CDex 1.50
#
DISCID=9e06de0b
DTITLE=Country Sisters - You Can Make Me Happy
DYEAR=2002
DGENRE=Country
TTITLE0=You Can Make Me Happy
TTITLE1=One Way Track
TTITLE2=I don't know
TTITLE3=Dare To Go Bare
TTITLE4=Money! Money!
TTITLE5=Let's Go To Vegas
TTITLE6=Good Golly Miss Molly
TTITLE7=Zamávám
TTITLE8=Say Yeah!
TTITLE9=Krajky
TTITLE10=She's Running Away
EXTD=YEAR: 2002
EXTT0=
EXTT1=
EXTT2=
EXTT3=
EXTT4=
EXTT5=
EXTT6=
EXTT7=
EXTT8=
EXTT9=
EXTT10=
PLAYORDER=
